<svg xmlns="http://www.w3.org/2000/svg" width="20.867" height="16.552" viewBox="0 0 20.867 16.552">
  <g id="icon_video" transform="translate(0 0)">
    <path id="Trazado_1313" data-name="Trazado 1313" d="M-463.845-863.938l-3.945-2.51a.358.358,0,0,0-.5.111.357.357,0,0,0-.056.192v5.02a.358.358,0,0,0,.359.359.358.358,0,0,0,.192-.056l3.944-2.51a.358.358,0,0,0,.11-.494.354.354,0,0,0-.11-.11Zm-3.779,2.159V-865.5l2.918,1.859Z" transform="translate(476.984 871.911)" fill="#4d4d4d"/>
    <path id="Trazado_1314" data-name="Trazado 1314" d="M-460.367-874.344h-20.147a.36.36,0,0,0-.36.36v15.831a.36.36,0,0,0,.36.36h20.147a.359.359,0,0,0,.36-.36h0v-15.831A.36.36,0,0,0-460.367-874.344Zm-16.909,7.916h-2.879v-3.235h2.879Zm-2.879.719h2.879v3.235h-2.879Zm3.6,3.6v-11.514h12.233v15.112h-12.233Zm15.831-4.317H-463.6v-3.235h2.879Zm-2.879.719h2.879v3.235H-463.6Zm2.879-7.916v3.235H-463.6v-3.235Zm-19.428,0h2.877v3.235h-2.879Zm0,15.112v-3.235h2.879v3.235Zm19.428,0H-463.6v-3.235h2.879Z" transform="translate(480.874 874.344)" fill="#4d4d4d"/>
  </g>
</svg>
