<svg xmlns="http://www.w3.org/2000/svg" width="10.416" height="16.387" viewBox="0 0 10.416 16.387">
  <g id="icon_download" transform="translate(-3.825 -0.098)">
    <g id="download-2" transform="translate(-6.051 0.198)">
      <path id="Trazado_1595" data-name="Trazado 1595" d="M14.884,14a.3.3,0,0,0,.424,0l4.8-4.8a.3.3,0,0,0-.424-.424L15.4,13.065V.3a.3.3,0,0,0-.6,0V13.065L10.511,8.781a.3.3,0,1,0-.424.424Z" transform="translate(0)" fill="#4d4d4d" stroke="#4d4d4d" stroke-width="0.2"/>
      <path id="Trazado_1596" data-name="Trazado 1596" d="M19.892,52H10.3a.3.3,0,1,0,0,.6h9.592a.3.3,0,1,0,0-.6Z" transform="translate(0 -36.413)" fill="#4d4d4d" stroke="#4d4d4d" stroke-width="0.2"/>
    </g>
  </g>
</svg>
