<svg id="alarm" xmlns="http://www.w3.org/2000/svg" width="27.293" height="31.048" viewBox="0 0 27.293 31.048">
  <path id="Trazado_45" data-name="Trazado 45" d="M842.784-38.618a12.614,12.614,0,0,1-3.963-9.2v-5.078a8.216,8.216,0,0,0-4.813-7.461,11.386,11.386,0,0,0-1.975-.686v-.324a2.822,2.822,0,0,0-2.822-2.822,2.823,2.823,0,0,0-2.822,2.822v.373a11.132,11.132,0,0,0-1.776.643,8.537,8.537,0,0,0-5,7.451v5.083a12.527,12.527,0,0,1-3.786,9.2.566.566,0,0,0,0,.8.571.571,0,0,0,.3.157l5.359.931c1,.172,1.917.31,2.794.43a5.589,5.589,0,0,0,7.462,2.606,5.593,5.593,0,0,0,2.606-2.606c.871-.116,1.785-.256,2.777-.428l5.357-.931a.564.564,0,0,0,.459-.654.565.565,0,0,0-.157-.3ZM827.514-61.364a1.694,1.694,0,0,1,1.694-1.694,1.693,1.693,0,0,1,1.694,1.694v.1a11.212,11.212,0,0,0-3.387.026Zm1.8,27.1a4.528,4.528,0,0,1-3.622-1.872,34.316,34.316,0,0,0,3.616.2,34.558,34.558,0,0,0,3.63-.2,4.528,4.528,0,0,1-3.622,1.874Zm7.621-3.584c-1.087.186-2.075.338-3.015.466h0c-.415.053-.817.1-1.211.138h-.014c-.36.036-.711.065-1.059.09l-.2.014c-.3.02-.6.036-.9.047h-.183c-.7.023-1.4.023-2.1,0l-.188-.008q-.44-.016-.885-.047l-.211-.014c-.339-.025-.682-.053-1.032-.087h-.036c-.391-.039-.79-.085-1.2-.137h0c-.942-.12-1.937-.272-3.026-.466l-4.328-.744a13.594,13.594,0,0,0,3.384-9.22v-5.078a7.39,7.39,0,0,1,4.347-6.43,10.049,10.049,0,0,1,1.972-.672h.017a10.269,10.269,0,0,1,4.278-.039h.022a10.129,10.129,0,0,1,2.159.7,7.166,7.166,0,0,1,4.159,6.433v5.083a13.739,13.739,0,0,0,3.57,9.22Z" transform="translate(-815.663 64.186)" fill="#4d4d4d"/>
</svg>
