<svg xmlns="http://www.w3.org/2000/svg" width="15.497" height="16.648" viewBox="0 0 15.497 16.648">
  <path id="icon_fixed" d="M219.7,248.309a.3.3,0,0,0-.154-.238,7.292,7.292,0,0,0-5.449-.582l-3.946-4.29a3.334,3.334,0,0,0-.323-2.393.3.3,0,0,0-.2-.137.31.31,0,0,0-.236.059l-5.072,3.963a.3.3,0,0,0-.05.422l.021.023a3.385,3.385,0,0,0,2.212.892l3.228,4.892a7.818,7.818,0,0,0-.76,5.416.3.3,0,0,0,.368.21.305.305,0,0,0,.1-.051l4.845-3.786,3.526,4.512a.3.3,0,0,0,.47-.367l-3.525-4.512,4.831-3.775A.3.3,0,0,0,219.7,248.309Z" transform="translate(-204.208 -240.665)" fill="#0d87e3"/>
</svg>
