<svg xmlns="http://www.w3.org/2000/svg" width="20.625" height="16.5" viewBox="0 0 20.625 16.5">
  <path id="icon_replicate" d="M490.617-1247.8v-1.906a.5.5,0,0,0-.5-.5h-1.906v-1.906a.5.5,0,0,0-.5-.5H472.9a.5.5,0,0,0-.5.5v10.687a.5.5,0,0,0,.5.5H474.8v1.907a.5.5,0,0,0,.5.5h1.906v1.906a.5.5,0,0,0,.5.5h14.812a.5.5,0,0,0,.5-.5V-1247.3a.5.5,0,0,0-.5-.5Zm-17.531,5.888v-9.713a.3.3,0,0,1,.3-.3h13.837a.3.3,0,0,1,.3.3v1.419H475.3a.5.5,0,0,0-.5.5v8.094h-1.419A.3.3,0,0,1,473.086-1241.916Zm2.406,2.406v-9.712a.3.3,0,0,1,.3-.3H489.63a.3.3,0,0,1,.3.3v1.418H477.711a.5.5,0,0,0-.5.5v8.094h-1.419A.3.3,0,0,1,475.492-1239.51Zm16.544,2.706H478.2a.3.3,0,0,1-.3-.3v-9.712a.3.3,0,0,1,.3-.3h13.838a.3.3,0,0,1,.3.3v9.712A.3.3,0,0,1,492.036-1236.8Z" transform="translate(-472.398 1252.616)" fill="#4d4d4d"/>
</svg>
