<svg xmlns="http://www.w3.org/2000/svg" width="17.612" height="17.626" viewBox="0 0 17.612 17.626">
  <path id="icon_fix" d="M15.8,6.355a.3.3,0,0,0-.182-.217,7.29,7.29,0,0,0-5.479.086L5.7,2.447A3.336,3.336,0,0,0,5.082.111.3.3,0,0,0,4.866,0a.309.309,0,0,0-.227.087L.087,4.639a.3.3,0,0,0,.025.445A3.386,3.386,0,0,0,2.418,5.7l3.8,4.462a7.822,7.822,0,0,0-.092,5.472.3.3,0,0,0,.488.1l4.348-4.348,4.049,4.049a.3.3,0,0,0,.422-.422L11.38,10.961l4.335-4.335A.3.3,0,0,0,15.8,6.355Zm-5.266,4.613L6.524,14.973a7.571,7.571,0,0,1,.307-4.747.3.3,0,0,0-.045-.316L2.77,5.189a.3.3,0,0,0-.228-.105.265.265,0,0,0-.046,0A3.087,3.087,0,0,1,.767,4.8L4.8.775A2.8,2.8,0,0,1,5.083,2.52a.3.3,0,0,0,.1.276L9.894,6.8a.3.3,0,0,0,.33.038,6.818,6.818,0,0,1,4.735-.3Z" transform="translate(1.928) rotate(7)" fill="#4a4a4a"/>
</svg>
