<svg xmlns="http://www.w3.org/2000/svg" width="13.75" height="16.5" viewBox="0 0 13.75 16.5">
  <g id="icon_share" transform="translate(-0.949 -0.013)">
    <path id="Trazado_1036" data-name="Trazado 1036" d="M21.393,12.714a2.357,2.357,0,1,0-2.347-2.564L13.52,14.2a2.357,2.357,0,1,0,0,4.1l5.526,4.052a2.354,2.354,0,1,0,.1-.9l-5-3.663a2.346,2.346,0,0,0,0-3.063l5-3.663A2.362,2.362,0,0,0,21.393,12.714Zm0-3.929a1.571,1.571,0,1,1-1.571,1.571A1.573,1.573,0,0,1,21.393,8.786ZM10.786,16.25a1.571,1.571,0,1,1,1.571,1.571A1.573,1.573,0,0,1,10.786,16.25Zm10.607,4.321a1.571,1.571,0,1,1-1.571,1.571A1.573,1.573,0,0,1,21.393,20.571Z" transform="translate(-9.051 -7.987)" fill="#4d4d4d"/>
  </g>
</svg>
