<svg id="icon_edit" xmlns="http://www.w3.org/2000/svg" width="16.524" height="16.5" viewBox="0 0 16.524 16.5">
  <path id="Trazado_3397" data-name="Trazado 3397" d="M2.885,14.2a.383.383,0,0,0,.368.043L7.47,12.517a.383.383,0,0,0,.158-.12L13.8,4.434a2.412,2.412,0,0,0-.453-3.4L12.632.5a2.42,2.42,0,0,0-3.362.45l-6.2,8.02a.385.385,0,0,0-.079.212l-.268,4.688a.383.383,0,0,0,.16.333Zm.83-4.24,2.817,2.113L3.524,13.3ZM7.24,11.647,3.9,9.144,8.936,2.631l3.329,2.527ZM9.877,1.414a1.652,1.652,0,0,1,2.294-.307l.709.536a1.646,1.646,0,0,1,.309,2.321l-.456.588L9.4,2.026Zm0,0" transform="translate(0 -0.013)" fill="#4d4d4d"/>
  <path id="Trazado_3398" data-name="Trazado 3398" d="M16.141,15.747H.383a.383.383,0,1,0,0,.766H16.141a.383.383,0,1,0,0-.766Zm0,0" transform="translate(0 -0.013)" fill="#4d4d4d"/>
</svg>
