<svg xmlns="http://www.w3.org/2000/svg" width="18.498" height="18.5" viewBox="0 0 18.498 18.5">
  <g id="icon_print" transform="translate(-444.07 1252.616)">
    <path id="Trazado_3344" data-name="Trazado 3344" d="M460.642-1247.992h-1.927v-2.7a1.929,1.929,0,0,0-1.926-1.926h-6.937a1.929,1.929,0,0,0-1.927,1.926v2.7H446a1.929,1.929,0,0,0-1.927,1.927v5.4a1.929,1.929,0,0,0,1.927,1.929h1.926v2.7a1.929,1.929,0,0,0,1.927,1.93h6.937a1.93,1.93,0,0,0,1.926-1.93v-2.7h1.927a1.928,1.928,0,0,0,1.926-1.926v-5.4A1.929,1.929,0,0,0,460.642-1247.992Zm-11.948-2.7a1.158,1.158,0,0,1,1.157-1.156h6.936a1.157,1.157,0,0,1,1.156,1.156v2.7h-9.249Zm8.094,15.8h-6.937a1.158,1.158,0,0,1-1.157-1.157v-3.073l0-.008,0-.008v-2.692h9.25v5.781A1.158,1.158,0,0,1,456.788-1234.889Zm5.01-5.781a1.157,1.157,0,0,1-1.157,1.156h-1.926v-2.7a.386.386,0,0,0-.386-.386H448.309a.386.386,0,0,0-.386.386v2.7H446a1.159,1.159,0,0,1-1.157-1.158v-5.4a1.159,1.159,0,0,1,1.157-1.157H460.64a1.159,1.159,0,0,1,1.157,1.157Z" fill="#4d4d4d"/>
    <path id="Trazado_3345" data-name="Trazado 3345" d="M454.037-1238.868h-4.125a.344.344,0,0,0-.343.344.344.344,0,0,0,.344.344h4.124a.344.344,0,0,0,.343-.344A.344.344,0,0,0,454.037-1238.868Z" transform="translate(0.941 2)" fill="#4d4d4d"/>
    <path id="Trazado_3346" data-name="Trazado 3346" d="M454.037-1240.243h-4.124a.344.344,0,0,0-.343.344.344.344,0,0,0,.343.344h4.124a.344.344,0,0,0,.343-.344A.344.344,0,0,0,454.037-1240.243Z" transform="translate(0.941 1.565)" fill="#4d4d4d"/>
    <path id="Trazado_3347" data-name="Trazado 3347" d="M449.913-1240.93h1.375a.343.343,0,0,0,.343-.344.343.343,0,0,0-.343-.344h-1.375a.344.344,0,0,0-.344.344A.344.344,0,0,0,449.913-1240.93Z" transform="translate(0.762 1.391)" fill="#4d4d4d"/>
  </g>
</svg>
